<?xml version="1.0" encoding="UTF-8" ?>
 <svg viewBox="0 -100  50 111" xmlns="http://www.w3.org/2000/svg" version="1.0" overflow="visible">
  <defs>
   <g id="ID__#42_Model_Space"/>
   <g id="ID__#42_Paper_Space0"/>
   <g id="ID__#42_Paper_Space"/>
  </defs>
  <g id="draft" transform="matrix(1 0 0 -1 0 0)" stroke-width="0.020125">
   <g id="ID_0" color="rgb(0,0,0)" stroke="currentColor" fill="none" stroke-width="0.020125">
    <path d="M 10 0 L 10 -11 L 20 -11 L 20 0 L 30 0 L 30 -11 L 40 -11 L 40 0 L 45 0 A 5 5 0 0  1 50.0 5.0 L 50 94.99999999999999 A 5.000000000000011 5.000000000000011 0 0  1 44.99999999999999 100.0 L 5.000000000000008 100 A 5.000000000000003 5.000000000000003 0 0  1 1.1E-15 95.0 L 0 5 A 4.999999999999999 4.999999999999999 0 0  1 4.999999999999999 0.0  z" id="B6"/>
    <path d="M 24.75000000000002 78.99652710772328 L 25.25000000000002 78.99652710772328 L 25.25000000000002 68.99652710772328 A 8.999999999999982 8.999999999999982 0 0  0 31.18472862970311 66.53828202029635 L 38.25579644156859 73.60934983216184 L 38.60934983216186 73.25579644156856 L 31.53828202029638 66.18472862970309 A 9.000000000000016 9.000000000000016 0 0  0 33.99652710772329 60.24999999999998 L 43.99652710772329 60.24999999999998 L 43.99652710772331 59.75 L 33.99652710772329 59.75 A 8.999999999999993 8.999999999999993 0 0  0 31.53828202029636 53.81527137029689 L 38.60934983216183 46.74420355843141 L 38.25579644156859 46.39065016783814 L 31.1847286297031 53.46171797970362 A 9.000000000000005 9.000000000000005 0 0  0 25.24999999999998 51.0034728922767 L 25.24999999999999 41.00347289227671 L 24.75 41.0034728922767 L 24.75 51.00347289227671 A 8.999999999999998 8.999999999999998 0 0  0 18.81527137029688 53.46171797970365 L 11.74420355843141 46.39065016783816 L 11.39065016783814 46.74420355843142 L 18.46171797970361 53.81527137029691 A 8.999999999999986 8.999999999999986 0 0  0 16.00347289227671 59.75000000000002 L 6.003472892276713 59.75000000000002 L 6.003472892276713 60.25000000000002 L 16.00347289227671 60.25000000000002 A 8.999999999999979 8.999999999999979 0 0  0 18.46171797970364 66.1847286297031 L 11.39065016783816 73.25579644156859 L 11.74420355843144 73.60934983216185 L 18.81527137029691 66.53828202029638 A 9.000000000000009 9.000000000000009 0 0  0 24.75000000000002 68.9965271077233  z" id="C9"/>
   </g>
  </g>
 </svg>