<?xml version="1.0" encoding="UTF-8" ?>
 <svg viewBox="0 -100  50 111" xmlns="http://www.w3.org/2000/svg" version="1.0" overflow="visible">
  <defs>
   <g id="ID__#42_Model_Space"/>
   <g id="ID__#42_Paper_Space0"/>
   <g id="ID__#42_Paper_Space"/>
  </defs>
  <g id="draft" transform="matrix(1 0 0 -1 0 0)" stroke-width="0.020125">
   <g id="ID_0" color="rgb(0,0,0)" stroke="currentColor" fill="none" stroke-width="0.020125">
    <path d="M 9.999999999999998 0.0000000000000001 L 10 -10.99999999999999 L 20 -10.99999999999999 L 20 0 L 30 0 L 30.00000000000001 -10.99999999999998 L 40 -11 L 40 0 L 45 0 A 5 5 0 0  1 50.0 5.0 L 50 94.99999999999999 A 5.000000000000011 5.000000000000011 0 0  1 44.99999999999999 100.0 L 5.000000000000008 100 A 5.000000000000003 5.000000000000003 0 0  1 1.1E-15 95.0 L 0 5 A 4.999999999999999 4.999999999999999 0 0  1 4.999999999999999 0.0  z" id="B6"/>
    <path d="M 25.5677397754669 9.9687136822801 L 25.09789346507414 10.13972375394287 L 31.9382963315875 28.93357616966105 L 32.40814264198026 28.76256609799828  z" id="C9"/>
    <path d="M 35.97067612529019 21.035137512619 L 35.50082981489724 21.20614758428183 L 42.3412326814106 40 L 42.81107899180355 39.82898992833717  z" id="CF"/>
    <path d="M 29.54318755008206 40 L 30.01303386047502 39.82898992833717 L 23.17263099396165 21.035137512619 L 22.70278468356869 21.20614758428182  z" id="D5"/>
    <path d="M 19.62994587119672 32.43970739675912 L 20.09979218158968 32.26869732509629 L 13.25938931507631 13.47484490937812 L 12.78954300468335 13.64585498104095  z" id="DB"/>
    <path d="M 14.34040286651337 40 L 14.81024917690632 39.82898992833717 L 7.969846310392954 21.035137512619 L 7.500000000000001 21.20614758428183  z" id="E1"/>
   </g>
  </g>
 </svg>