<?xml version="1.0" encoding="UTF-8" ?>
 <svg viewBox="0 -100.0000000000004  50 111.0000000000004" xmlns="http://www.w3.org/2000/svg" version="1.0" overflow="visible">
  <defs>
   <g id="ID__#42_Model_Space"/>
   <g id="ID__#42_Paper_Space0"/>
   <g id="ID__#42_Paper_Space"/>
  </defs>
  <g id="draft" transform="matrix(1 0 0 -1 0 0)" stroke-width="0.02012500000000005">
   <g id="ID_0" color="rgb(0,0,0)" stroke="currentColor" fill="none" stroke-width="0.02012500000000005">
    <path d="M 9.999999999999998 0 L 9.999999999999998 -11 L 20 -11 L 20 0 L 30 0 L 30 -11 L 40 -11 L 40 0 L 45 0 A 5 5 0 0  1 50.0 5.0 L 50 95 A 5 5 0 0  1 45.0 100.0 L 5 100.0000000000004 A 4.999999999999979 4.999999999999979 0 0  1 0.0 95.00000000000044 L 0 5 A 4.999999999999998 4.999999999999998 0 0  1 4.999999999999999 1.1E-15  z" id="B6"/>
    <path d="M 5 40 A 3.0000000000000018 3.0000000000000018 0 1  0 6.026060429977004 45.81907786235773 A 5.000000000000001 5.000000000000001 0 0  0 13.45000084102063 52.04850352314654 A 9.000000000000004 9.000000000000004 0 0  0 31.0212603541017 55.14679066033301 A 5.499999999999995 5.499999999999995 0 1  0 41.35525838939123 51.3855229745222 A 4.000000000000007 4.000000000000007 0 0  0 46.02606042997701 45.81907786235773 A 3.000000000000003 3.000000000000003 0 0  0 45.0 40.0  z" id="C9"/>
   </g>
  </g>
 </svg>